<?xml version="1.0" encoding="utf-8"?>
<!-- Generator: Adobe Illustrator 19.1.0, SVG Export Plug-In . SVG Version: 6.00 Build 0)  -->
<svg version="1.1" id="Layer_1" xmlns="http://www.w3.org/2000/svg" xmlns:xlink="http://www.w3.org/1999/xlink" x="0px" y="0px"
	 viewBox="673 326.5 1958.4 140.5" style="enable-background:new 673 326.5 1958.4 140.5;" xml:space="preserve">
<style type="text/css">
	.st0{fill:#737474;}
	.st1{fill:#F05125;}
	.st2{fill:#7FBB42;}
	.st3{fill:#33A0DA;}
	.st4{fill:#FDB813;}
</style>
<path class="st0" d="M965.2,354.8v84.5h-14.7v-66.2h-0.2L924,439.3h-9.7l-26.9-66.2h-0.2v66.2h-13.6v-84.5h21l24.4,62.7h0.4
	l25.6-62.7H965.2z M977.5,361.3c0-2.4,0.9-4.3,2.6-5.9c1.7-1.6,3.7-2.4,6.1-2.4c2.5,0,4.6,0.8,6.2,2.4c1.7,1.6,2.5,3.6,2.5,5.9
	c0,2.3-0.8,4.3-2.5,5.8c-1.7,1.6-3.8,2.4-6.2,2.4s-4.5-0.8-6.2-2.4S977.5,363.5,977.5,361.3z M993.2,378.8v60.6h-14.3v-60.6H993.2z
	 M1036.4,429c2.1,0,4.5-0.5,7-1.5c2.6-1,4.9-2.3,7.1-3.9v13.3c-2.3,1.3-4.9,2.3-7.8,2.9c-2.9,0.7-6.1,1-9.5,1
	c-8.9,0-16.2-2.8-21.7-8.5c-5.6-5.6-8.4-12.8-8.4-21.6c0-9.7,2.8-17.8,8.5-24.1c5.7-6.3,13.8-9.5,24.2-9.5c2.7,0,5.4,0.3,8.1,1
	s4.9,1.5,6.5,2.4v13.7c-2.2-1.6-4.4-2.9-6.7-3.7c-2.3-0.9-4.6-1.3-7-1.3c-5.6,0-10.2,1.8-13.6,5.5c-3.5,3.7-5.2,8.6-5.2,14.8
	c0,6.1,1.7,10.9,5,14.3C1026.2,427.3,1030.7,429,1036.4,429z M1091.1,377.8c1.1,0,2.2,0.1,3.1,0.2c0.9,0.2,1.7,0.4,2.3,0.6V393
	c-0.7-0.5-1.8-1.1-3.3-1.6c-1.4-0.5-3.2-0.7-5.2-0.7c-3.5,0-6.5,1.5-8.9,4.4s-3.6,7.5-3.6,13.6v30.6h-14.3v-60.5h14.3v9.5h0.2
	c1.3-3.3,3.3-5.9,5.9-7.7C1084.3,378.7,1087.4,377.8,1091.1,377.8z M1097.3,409.9c0-10,2.8-18,8.5-23.8c5.7-5.9,13.5-8.8,23.6-8.8
	c9.5,0,16.9,2.8,22.2,8.5c5.3,5.6,8,13.3,8,22.8c0,9.8-2.8,17.6-8.5,23.5c-5.7,5.8-13.4,8.7-23.1,8.7c-9.4,0-16.8-2.8-22.4-8.3
	S1097.3,419.5,1097.3,409.9z M1112.1,409.5c0,6.3,1.4,11.2,4.3,14.5s7,5,12.3,5c5.2,0,9.1-1.7,11.8-5s4.1-8.3,4.1-14.9
	c0-6.5-1.4-11.4-4.2-14.8c-2.8-3.3-6.7-5-11.8-5c-5.2,0-9.3,1.7-12.2,5.2C1113.6,398.1,1112.1,403,1112.1,409.5z M1180.7,394.7
	c0,2,0.6,3.6,1.9,4.8c1.3,1.2,4.2,2.6,8.6,4.4c5.7,2.3,9.7,4.8,12,7.7c2.3,2.8,3.4,6.3,3.4,10.3c0,5.7-2.2,10.3-6.6,13.7
	c-4.4,3.5-10.3,5.2-17.8,5.2c-2.5,0-5.3-0.3-8.3-0.9s-5.6-1.4-7.8-2.3v-14c2.6,1.8,5.4,3.2,8.4,4.3s5.7,1.6,8.1,1.6
	c3.2,0,5.6-0.5,7.1-1.4c1.5-0.9,2.3-2.4,2.3-4.5c0-2-0.8-3.6-2.4-5c-1.6-1.4-4.6-2.9-9-4.7c-5.3-2.2-9-4.7-11.2-7.4
	c-2.2-2.8-3.3-6.2-3.3-10.5c0-5.5,2.2-9.9,6.5-13.5c4.3-3.5,10-5.3,16.9-5.3c2.1,0,4.5,0.2,7.1,0.7c2.6,0.5,4.8,1.1,6.6,1.8v13.6
	c-1.9-1.3-4.1-2.3-6.6-3.2c-2.5-0.9-5-1.4-7.5-1.4c-2.7,0-4.8,0.5-6.3,1.6C1181.5,391.4,1180.7,392.8,1180.7,394.7z M1212.8,409.9
	c0-10,2.8-18,8.5-23.8c5.7-5.9,13.5-8.8,23.6-8.8c9.5,0,16.9,2.8,22.2,8.5c5.3,5.6,8,13.3,8,22.8c0,9.8-2.8,17.6-8.5,23.5
	c-5.7,5.8-13.4,8.7-23.1,8.7c-9.4,0-16.8-2.8-22.4-8.3C1215.6,427,1212.8,419.5,1212.8,409.9z M1227.7,409.5
	c0,6.3,1.4,11.2,4.3,14.5c2.9,3.3,7,5,12.3,5c5.2,0,9.1-1.7,11.8-5s4.1-8.3,4.1-14.9c0-6.5-1.4-11.4-4.2-14.8c-2.8-3.3-6.7-5-11.8-5
	c-5.2,0-9.3,1.7-12.2,5.2C1229.1,398.1,1227.7,403,1227.7,409.5z M1322.4,390.4h-21.2v48.9h-14.4v-48.9h-10.1v-11.6h10.1v-8.4
	c0-6.4,2.1-11.6,6.2-15.6c4.1-4.1,9.5-6.1,15.9-6.1c1.7,0,3.3,0.1,4.6,0.3s2.5,0.4,3.5,0.8v12.3c-0.5-0.3-1.3-0.6-2.5-1
	s-2.5-0.6-4.1-0.6c-3,0-5.3,0.9-6.9,2.8c-1.6,1.9-2.4,4.6-2.4,8.3v7.3h21.2v-13.8l14.3-4.4v18h14.4v11.7h-14.4v28.3
	c0,3.7,0.7,6.4,2,7.9c1.4,1.5,3.5,2.3,6.4,2.3c0.8,0,1.8-0.2,3-0.6c1.2-0.4,2.2-0.9,3-1.4v11.8c-0.9,0.5-2.4,1-4.5,1.4
	s-4.2,0.6-6.2,0.6c-6,0-10.5-1.6-13.5-4.8c-3-3.2-4.5-8-4.5-14.5L1322.4,390.4L1322.4,390.4z"/>
<g>
	<rect x="673" y="326.7" class="st1" width="66.9" height="66.9"/>
	<rect x="746.9" y="326.7" class="st2" width="66.9" height="66.9"/>
	<rect x="673" y="400.6" class="st3" width="66.9" height="66.9"/>
	<rect x="746.9" y="400.6" class="st4" width="66.9" height="66.9"/>
</g>
</svg>
