<?xml version="1.0" encoding="utf-8"?>
<!-- Generator: Adobe Illustrator 19.1.0, SVG Export Plug-In . SVG Version: 6.00 Build 0)  -->
<svg version="1.1" id="Layer_1" xmlns="http://www.w3.org/2000/svg" xmlns:xlink="http://www.w3.org/1999/xlink" x="0px" y="0px"
	 viewBox="0 0 1958.4 140.5" style="enable-background:new 0 0 1958.4 140.5;" xml:space="preserve">
<style type="text/css">
	.st0{fill:#D26432;}
	.st1{fill:#EC8725;}
	.st2{fill:#F05125;}
	.st3{fill:#737474;}
	.st4{fill:#7FBB42;}
	.st5{fill:#33A0DA;}
	.st6{fill:#FDB813;}
</style>
<path class="st2" d="M1546.6,103.3c-5.5,3.3-12.1,5-19.7,5c-10.3,0-18.6-3.3-24.9-10c-6.3-6.7-9.5-15.3-9.5-26
	c0-11.9,3.4-21.4,10.2-28.6c6.8-7.2,15.9-10.8,27.2-10.8c6.3,0,11.9,1.2,16.7,3.5v11.8c-5.3-3.8-11.1-5.6-17.2-5.6
	c-7.4,0-13.4,2.6-18.1,7.9s-7.1,12.2-7.1,20.8c0,8.4,2.2,15.1,6.6,20c4.4,4.9,10.4,7.3,17.8,7.3c6.3,0,12.2-2.1,17.7-6.3V103.3z"/>
<path class="st2" d="M1615.5,106.6H1604V95.3h-0.3c-5,8.6-12.4,12.9-22.1,12.9c-7.2,0-12.8-1.9-16.8-5.7c-4.1-3.8-6.1-8.8-6.1-15.1
	c0-13.5,7.9-21.3,23.8-23.5l21.6-3c0-12.2-4.9-18.4-14.8-18.4c-8.7,0-16.5,3-23.5,8.9V39.7c7.1-4.5,15.2-6.8,24.5-6.8
	c16.9,0,25.4,9,25.4,26.9V106.6z M1604,70.2l-17.4,2.4c-5.3,0.8-9.4,2.1-12.1,4c-2.7,1.9-4.1,5.3-4.1,10.1c0,3.5,1.3,6.4,3.8,8.6
	c2.5,2.2,5.8,3.3,10,3.3c5.7,0,10.4-2,14.2-6s5.6-9.1,5.6-15.2V70.2z"/>
<path class="st2" d="M1670.7,105.9c-2.7,1.5-6.3,2.3-10.8,2.3c-12.6,0-18.9-7-18.9-21.1V44.4h-12.4v-9.8h12.4V17l11.5-3.7v21.3h18.1
	v9.8h-18.1V85c0,4.8,0.8,8.3,2.5,10.3c1.6,2.1,4.4,3.1,8.2,3.1c2.9,0,5.4-0.8,7.5-2.4V105.9z"/>
<path class="st2" d="M1737.6,106.6h-11.5V95.3h-0.3c-5,8.6-12.4,12.9-22.1,12.9c-7.2,0-12.8-1.9-16.8-5.7c-4.1-3.8-6.1-8.8-6.1-15.1
	c0-13.5,7.9-21.3,23.8-23.5l21.6-3c0-12.2-4.9-18.4-14.8-18.4c-8.7,0-16.5,3-23.5,8.9V39.7c7.1-4.5,15.2-6.8,24.5-6.8
	c16.9,0,25.4,9,25.4,26.9V106.6z M1726.1,70.2l-17.4,2.4c-5.3,0.8-9.4,2.1-12.1,4c-2.7,1.9-4.1,5.3-4.1,10.1c0,3.5,1.3,6.4,3.8,8.6
	c2.5,2.2,5.8,3.3,10,3.3c5.7,0,10.4-2,14.2-6s5.6-9.1,5.6-15.2V70.2z"/>
<path class="st2" d="M1770.9,106.6h-11.5V0h11.5V106.6z"/>
<path class="st2" d="M1851.5,34.6l-33.1,83.5c-5.9,14.9-14.2,22.4-24.9,22.4c-3,0-5.5-0.3-7.5-0.9v-10.3c2.5,0.8,4.8,1.3,6.8,1.3
	c5.8,0,10.2-3.5,13.1-10.4l5.8-13.6l-28.1-71.9h12.8l19.5,55.4c0.2,0.7,0.7,2.5,1.5,5.5h0.4c0.2-1.1,0.7-2.9,1.4-5.3l20.5-55.5
	H1851.5z"/>
<path class="st2" d="M1859.5,104V91.6c6.3,4.6,13.2,7,20.7,7c10.1,0,15.2-3.4,15.2-10.1c0-1.9-0.4-3.6-1.3-4.9
	c-0.9-1.3-2-2.5-3.5-3.6c-1.5-1-3.2-2-5.2-2.8c-2-0.8-4.1-1.7-6.4-2.6c-3.2-1.3-6-2.5-8.4-3.8c-2.4-1.3-4.4-2.7-6-4.4
	s-2.8-3.5-3.7-5.5c-0.8-2.1-1.2-4.5-1.2-7.2c0-3.4,0.8-6.4,2.3-9s3.6-4.8,6.2-6.5c2.6-1.8,5.5-3.1,8.8-4c3.3-0.9,6.7-1.3,10.2-1.3
	c6.2,0,11.8,1.1,16.7,3.2v11.7c-5.3-3.5-11.4-5.2-18.3-5.2c-2.2,0-4.1,0.2-5.8,0.7c-1.7,0.5-3.2,1.2-4.5,2.1c-1.2,0.9-2.2,2-2.9,3.2
	c-0.7,1.2-1,2.6-1,4.1c0,1.9,0.3,3.4,1,4.7c0.7,1.3,1.7,2.4,3,3.4c1.3,1,2.9,1.9,4.8,2.7c1.9,0.8,4,1.7,6.4,2.6
	c3.2,1.2,6,2.5,8.6,3.8c2.5,1.3,4.7,2.7,6.5,4.4c1.8,1.6,3.2,3.5,4.1,5.6c1,2.1,1.4,4.6,1.4,7.5c0,3.6-0.8,6.7-2.4,9.3
	c-1.6,2.6-3.7,4.8-6.3,6.5c-2.6,1.7-5.6,3-9.1,3.9c-3.4,0.8-7,1.3-10.8,1.3C1871.4,108.3,1865,106.9,1859.5,104z"/>
<path class="st2" d="M1958.4,105.9c-2.7,1.5-6.3,2.3-10.8,2.3c-12.6,0-18.9-7-18.9-21.1V44.4h-12.4v-9.8h12.4V17l11.5-3.7v21.3h18.1
	v9.8h-18.1V85c0,4.8,0.8,8.3,2.5,10.3c1.6,2.1,4.4,3.1,8.2,3.1c2.9,0,5.4-0.8,7.5-2.4V105.9z"/>
<path class="st3" d="M977.9,81.6v26.7h-17.4V30.9h27.3c19.5,0,29.3,8.2,29.3,24.7c0,7.8-2.8,14.1-8.4,18.9
	c-5.6,4.8-13.1,7.2-22.4,7.2H977.9z M977.9,44.3v24.1h6.9c9.3,0,13.9-4.1,13.9-12.2c0-8-4.6-11.9-13.9-11.9H977.9z"/>
<path class="st3" d="M1093.1,108.3h-19l-5.5-17.2H1041l-5.5,17.2h-18.9l28.2-77.4h20.7L1093.1,108.3z M1064.5,77.7l-8.3-26
	c-0.6-1.9-1-4.3-1.3-7h-0.4c-0.2,2.3-0.6,4.5-1.4,6.8l-8.4,26.2H1064.5z"/>
<path class="st3" d="M1170.8,108.3h-20l-12-19.9c-0.9-1.5-1.8-2.9-2.6-4.1c-0.8-1.2-1.7-2.2-2.5-3.1c-0.8-0.8-1.7-1.5-2.6-1.9
	c-0.9-0.4-1.9-0.7-3-0.7h-4.7v29.7h-17.4V30.9h27.7c18.8,0,28.2,7,28.2,21.1c0,2.7-0.4,5.2-1.2,7.5c-0.8,2.3-2,4.3-3.5,6.2
	c-1.5,1.8-3.3,3.4-5.5,4.8c-2.1,1.3-4.5,2.4-7.2,3.1v0.2c1.2,0.4,2.3,0.9,3.3,1.8c1.1,0.8,2.1,1.8,3.1,2.8c1,1.1,2,2.2,2.9,3.5
	c0.9,1.2,1.8,2.5,2.5,3.6L1170.8,108.3z M1123.3,43.9v21.5h7.6c3.7,0,6.8-1.1,9-3.2c2.3-2.2,3.5-4.9,3.5-8.2
	c0-6.8-4.1-10.2-12.2-10.2H1123.3z"/>
<path class="st3" d="M1233.3,45.1h-22.1v63.2h-17.5V45.1h-22V30.9h61.6V45.1z"/>
<path class="st3" d="M1316.5,108.3h-17.6L1267,59.7c-1.9-2.8-3.2-5-3.9-6.4h-0.2c0.3,2.7,0.4,6.9,0.4,12.5v42.6h-16.5V30.9h18.8
	l30.7,47.1c1.4,2.1,2.7,4.2,3.9,6.3h0.2c-0.3-1.8-0.4-5.3-0.4-10.6V30.9h16.5V108.3z"/>
<path class="st3" d="M1383.7,108.3h-46.4V30.9h44.7v14.2h-27.2v17.2h25.3v14.1h-25.3v17.7h29V108.3z"/>
<path class="st3" d="M1464.2,108.3h-20l-12-19.9c-0.9-1.5-1.8-2.9-2.6-4.1c-0.8-1.2-1.7-2.2-2.5-3.1c-0.8-0.8-1.7-1.5-2.6-1.9
	c-0.9-0.4-1.9-0.7-3-0.7h-4.7v29.7h-17.4V30.9h27.7c18.8,0,28.2,7,28.2,21.1c0,2.7-0.4,5.2-1.2,7.5c-0.8,2.3-2,4.3-3.5,6.2
	c-1.5,1.8-3.3,3.4-5.5,4.8c-2.1,1.3-4.5,2.4-7.2,3.1v0.2c1.2,0.4,2.3,0.9,3.3,1.8c1.1,0.8,2.1,1.8,3.1,2.8c1,1.1,2,2.2,2.9,3.5
	c0.9,1.2,1.8,2.5,2.5,3.6L1464.2,108.3z M1416.7,43.9v21.5h7.6c3.7,0,6.8-1.1,9-3.2c2.3-2.2,3.5-4.9,3.5-8.2c0-6.8-4-10.2-12.2-10.2
	H1416.7z"/>
<path class="st3" d="M292.2,28.3v84.5h-14.7V46.6h-0.2L251,112.8h-9.7l-26.9-66.2h-0.2v66.2h-13.6V28.3h21L246,91h0.4L272,28.3
	H292.2z M304.5,34.8c0-2.4,0.9-4.3,2.6-5.9s3.7-2.4,6.1-2.4c2.5,0,4.6,0.8,6.2,2.4c1.7,1.6,2.5,3.6,2.5,5.9c0,2.3-0.8,4.3-2.5,5.8
	c-1.7,1.6-3.8,2.4-6.2,2.4s-4.5-0.8-6.2-2.4C305.3,39,304.5,37,304.5,34.8z M320.2,52.3v60.6h-14.3V52.3H320.2z M363.4,102.5
	c2.1,0,4.5-0.5,7-1.5c2.6-1,4.9-2.3,7.1-3.9v13.3c-2.3,1.3-4.9,2.3-7.8,2.9c-2.9,0.7-6.1,1-9.5,1c-8.9,0-16.2-2.8-21.7-8.5
	c-5.6-5.6-8.4-12.8-8.4-21.6c0-9.7,2.8-17.8,8.5-24.1c5.7-6.3,13.8-9.5,24.2-9.5c2.7,0,5.4,0.3,8.1,1c2.7,0.7,4.9,1.5,6.5,2.4v13.7
	c-2.2-1.6-4.4-2.9-6.7-3.7c-2.3-0.9-4.6-1.3-7-1.3c-5.6,0-10.2,1.8-13.6,5.5c-3.5,3.7-5.2,8.6-5.2,14.8c0,6.1,1.7,10.9,5,14.3
	C353.2,100.8,357.7,102.5,363.4,102.5z M418.1,51.3c1.1,0,2.2,0.1,3.1,0.2c0.9,0.2,1.7,0.4,2.3,0.6v14.4c-0.7-0.5-1.8-1.1-3.3-1.6
	c-1.4-0.5-3.2-0.7-5.2-0.7c-3.5,0-6.5,1.5-8.9,4.4c-2.4,2.9-3.6,7.5-3.6,13.6v30.6h-14.3V52.3h14.3v9.5h0.2c1.3-3.3,3.3-5.9,5.9-7.7
	C411.3,52.2,414.4,51.3,418.1,51.3z M424.3,83.4c0-10,2.8-18,8.5-23.8c5.7-5.9,13.5-8.8,23.6-8.8c9.5,0,16.9,2.8,22.2,8.5
	c5.3,5.6,8,13.3,8,22.8c0,9.8-2.8,17.6-8.5,23.5c-5.7,5.8-13.4,8.7-23.1,8.7c-9.4,0-16.8-2.8-22.4-8.3
	C427,100.5,424.3,93,424.3,83.4z M439.1,83c0,6.3,1.4,11.2,4.3,14.5c2.9,3.3,7,5,12.3,5c5.2,0,9.1-1.7,11.8-5
	c2.7-3.3,4.1-8.3,4.1-14.9c0-6.5-1.4-11.4-4.2-14.8c-2.8-3.3-6.7-5-11.8-5c-5.2,0-9.3,1.7-12.2,5.2C440.6,71.6,439.1,76.5,439.1,83z
	 M507.7,68.2c0,2,0.6,3.6,1.9,4.8c1.3,1.2,4.2,2.6,8.6,4.4c5.7,2.3,9.7,4.8,12,7.7c2.3,2.8,3.4,6.3,3.4,10.3
	c0,5.7-2.2,10.3-6.6,13.7c-4.4,3.5-10.3,5.2-17.8,5.2c-2.5,0-5.3-0.3-8.3-0.9c-3-0.6-5.6-1.4-7.8-2.3v-14c2.6,1.8,5.4,3.2,8.4,4.3
	c3,1.1,5.7,1.6,8.1,1.6c3.2,0,5.6-0.5,7.1-1.4c1.5-0.9,2.3-2.4,2.3-4.5c0-2-0.8-3.6-2.4-5s-4.6-2.9-9-4.7c-5.3-2.2-9-4.7-11.2-7.4
	c-2.2-2.8-3.3-6.2-3.3-10.5c0-5.5,2.2-9.9,6.5-13.5c4.3-3.5,10-5.3,16.9-5.3c2.1,0,4.5,0.2,7.1,0.7c2.6,0.5,4.8,1.1,6.6,1.8v13.6
	c-1.9-1.3-4.1-2.3-6.6-3.2c-2.5-0.9-5-1.4-7.5-1.4c-2.7,0-4.8,0.5-6.3,1.6C508.5,64.9,507.7,66.3,507.7,68.2z M539.8,83.4
	c0-10,2.8-18,8.5-23.8c5.7-5.9,13.5-8.8,23.6-8.8c9.5,0,16.9,2.8,22.2,8.5c5.3,5.6,8,13.3,8,22.8c0,9.8-2.8,17.6-8.5,23.5
	c-5.7,5.8-13.4,8.7-23.1,8.7c-9.4,0-16.8-2.8-22.4-8.3C542.6,100.5,539.8,93,539.8,83.4z M554.7,83c0,6.3,1.4,11.2,4.3,14.5
	c2.9,3.3,7,5,12.3,5c5.2,0,9.1-1.7,11.8-5c2.7-3.3,4.1-8.3,4.1-14.9c0-6.5-1.4-11.4-4.2-14.8c-2.8-3.3-6.7-5-11.8-5
	c-5.2,0-9.3,1.7-12.2,5.2C556.1,71.6,554.7,76.5,554.7,83z M649.4,63.9h-21.2v48.9h-14.4V63.9h-10.1V52.3h10.1v-8.4
	c0-6.4,2.1-11.6,6.2-15.6c4.1-4.1,9.5-6.1,15.9-6.1c1.7,0,3.3,0.1,4.6,0.3c1.3,0.2,2.5,0.4,3.5,0.8v12.3c-0.5-0.3-1.3-0.6-2.5-1
	c-1.2-0.4-2.5-0.6-4.1-0.6c-3,0-5.3,0.9-6.9,2.8s-2.4,4.6-2.4,8.3v7.3h21.2V38.6l14.3-4.4v18h14.4v11.7h-14.4v28.3
	c0,3.7,0.7,6.4,2,7.9c1.4,1.5,3.5,2.3,6.4,2.3c0.8,0,1.8-0.2,3-0.6c1.2-0.4,2.2-0.9,3-1.4v11.8c-0.9,0.5-2.4,1-4.5,1.4
	s-4.2,0.6-6.2,0.6c-6,0-10.5-1.6-13.5-4.8c-3-3.2-4.5-8-4.5-14.5V63.9z"/>
<g>
	<rect y="0.2" class="st2" width="66.9" height="66.9"/>
	<rect x="73.9" y="0.2" class="st4" width="66.9" height="66.9"/>
	<rect y="74.1" class="st5" width="66.9" height="66.9"/>
	<rect x="73.9" y="74.1" class="st6" width="66.9" height="66.9"/>
</g>
</svg>
